<?xml version="1.0" encoding="utf-8"?>
<!-- Generator: Adobe Illustrator 26.0.3, SVG Export Plug-In . SVG Version: 6.00 Build 0)  -->
<svg version="1.1" id="Layer_1" xmlns="http://www.w3.org/2000/svg" xmlns:xlink="http://www.w3.org/1999/xlink" x="0px" y="0px"
	 viewBox="0 0 392.6 287.8" style="enable-background:new 0 0 392.6 287.8;" xml:space="preserve">
<style type="text/css">
	.st0{fill:#FFFFFF;}
</style>
<path class="st0" d="M134.4,165.9c-3.5,0-6.7,0-10,0c-16.7,0-33.3-0.1-50,0.2c-5.3,0.1-10.6,0.6-15.9,1.7c-9,1.9-12.3,6-13,15.2
	c0,0.4-0.1,0.8-0.2,1.6c-1.2-0.8-2.1-1.4-3-2.1c-11.2-9.6-14.5-21.8-10.9-35.9c4.9-19.4,17.6-30.5,36.9-34.8
	c10.8-2.4,21.8-3.1,32.8-3.1c2.2,0,3.1-0.8,3.9-2.8c3.5-9.5,6.9-19.1,10.8-28.5c10.7-25.8,30.1-42,56.3-50.5
	c10.6-3.5,21.6-4.9,32.7-4.9c27.8,0,55.7,0,83.5-0.2c21.9-0.2,43.8-1.2,65.4-5.5c8.8-1.7,17.4-4,25.4-8c3.1-1.6,6-3.5,9.6-5.5
	c-1.5,5.5-2.7,10.8-4.3,15.8c-8.2,24.5-24.6,41.8-47.2,53.5c-17.4,9-36.1,13.6-55.3,16.2c-16.3,2.2-32.7,2.2-49.1,2.2
	c-8.5,0-17,0.7-25,3.8c-6.8,2.7-12.1,6.9-15.1,14.2h138.3c-0.7,1.4-1.2,2.3-1.7,3.2c-15.3,26.6-38.3,42.9-67.8,50.4
	c-10.1,2.5-20.5,3.8-30.9,3.8c-19,0-38,0-57,0c-2,0-2.9,0.6-3.6,2.5c-6.5,17-13,34.1-19.6,51.1c-11.8,30.5-34.3,49.2-65.1,58.7
	c-18.4,5.7-37.2,7.3-56.3,6.6c-8.3-0.3-16.6-1.1-24.9-1.7l-0.1-0.8c0.5-0.3,1-0.6,1.5-0.9c5-2.6,10.2-4.9,15.1-7.7
	c16.6-9.5,28-23.8,35.7-40.9c5.6-12.4,10.1-25.2,15-37.8c1.6-4,3.1-7.9,4.5-11.9c0.6-1.7,1.4-2.3,3.2-2.3c8.9,0.1,17.8,0.1,26.7,0
	c6.4-0.1,12.8-0.9,18.8-3.3C129.7,175.4,133.2,171.9,134.4,165.9z M63.4,141.9c6.1,0,11.2-4.5,12.2-10.4c0.3-1.6-0.3-2.4-1.8-2.9
	c-5.6-2-12.2,0.5-14.8,6C56.4,140.3,57,141.4,63.4,141.9z"/>
</svg>
